# xmcd CD database file
#
# Track frame offsets:
#	150
#	11672
#	24475
#	36172
#	47395
#	56700
#	66452
#	81325
#	92382
#	104875
#	115025
#	127022
#	137880
#	149102
#	163637
#	180812
#	192852
#	207402
#	218670
#	229657
#
# Disc length: 3191 seconds
#
# Revision: 0
# Processed by: cddbd v1.4PL0 Copyright (c) Steve Scherf et al.
# Submitted via: CDex 1.40Release
#
DISCID=210c7514
DTITLE=Willie Nelson - Good Times
DYEAR=1994
DGENRE=Country
TTITLE0=She's Not For You
TTITLE1=I Just Can't Let You Say Goodbye
TTITLE2=One In A Row
TTITLE3=The Party's Over
TTITLE4=Blackjack County Chains
TTITLE5=San Antonio Rose
TTITLE6=Little Things
TTITLE7=Good Times
TTITLE8=Johnny One Time
TTITLE9=Bring Me Sunshine
TTITLE10=Once More With Feeling
TTITLE11=Laying Any Burdens Down
TTITLE12=I'm A Memory
TTITLE13=Yesterday's Wine
TTITLE14=Me And Paul
TTITLE15=Funny How Time Slips Away
TTITLE16=Sweet Memories
TTITLE17=Crazy Arms
TTITLE18=Night Life
TTITLE19=Mountain Dew
EXTD=YEAR: 1994 ID3G: 2
EXTT0=
EXTT1=
EXTT2=
EXTT3=
EXTT4=
EXTT5=
EXTT6=
EXTT7=
EXTT8=
EXTT9=
EXTT10=
EXTT11=
EXTT12=
EXTT13=
EXTT14=
EXTT15=
EXTT16=
EXTT17=
EXTT18=
EXTT19=
PLAYORDER=
